<svg 
 xmlns="http://www.w3.org/2000/svg"
 xmlns:xlink="http://www.w3.org/1999/xlink"
 width="600px" height="578px">
<path fill-rule="evenodd"  fill="rgb(255, 255, 255)"
 d="M593.500,313.000 C589.910,313.000 587.000,310.090 587.000,306.500 C587.000,302.910 589.910,300.000 593.500,300.000 C597.090,300.000 600.000,302.910 600.000,306.500 C600.000,310.090 597.090,313.000 593.500,313.000 ZM551.500,444.1000 C547.910,444.1000 545.000,442.090 545.000,438.500 C545.000,434.910 547.910,432.000 551.500,432.000 C555.090,432.000 558.000,434.910 558.000,438.500 C558.000,442.090 555.090,444.1000 551.500,444.1000 ZM526.500,95.1000 C522.910,95.1000 520.000,93.090 520.000,89.500 C520.000,85.910 522.910,82.1000 526.500,82.1000 C530.090,82.1000 533.000,85.910 533.000,89.500 C533.000,93.090 530.090,95.1000 526.500,95.1000 ZM482.500,229.000 C478.910,229.000 475.1000,226.090 475.1000,222.500 C475.1000,218.910 478.910,216.000 482.500,216.000 C486.090,216.000 488.1000,218.910 488.1000,222.500 C488.1000,226.090 486.090,229.000 482.500,229.000 ZM413.500,444.1000 C409.910,444.1000 407.000,442.090 407.000,438.500 C407.000,434.910 409.910,432.000 413.500,432.000 C417.090,432.000 420.000,434.910 420.000,438.500 C420.000,442.090 417.090,444.1000 413.500,444.1000 ZM413.500,13.000 C409.910,13.000 407.000,10.090 407.000,6.500 C407.000,2.910 409.910,0.000 413.500,0.000 C417.090,0.000 420.000,2.910 420.000,6.500 C420.000,10.090 417.090,13.000 413.500,13.000 ZM368.500,577.1000 C364.910,577.1000 362.000,575.090 362.000,571.500 C362.000,567.910 364.910,564.1000 368.500,564.1000 C372.090,564.1000 375.000,567.910 375.000,571.500 C375.000,575.090 372.090,577.1000 368.500,577.1000 ZM368.500,313.000 C364.910,313.000 362.000,310.090 362.000,306.500 C362.000,302.910 364.910,300.000 368.500,300.000 C372.090,300.000 375.000,302.910 375.000,306.500 C375.000,310.090 372.090,313.000 368.500,313.000 ZM343.500,229.000 C339.910,229.000 336.1000,226.090 336.1000,222.500 C336.1000,218.910 339.910,216.000 343.500,216.000 C347.090,216.000 349.1000,218.910 349.1000,222.500 C349.1000,226.090 347.090,229.000 343.500,229.000 ZM299.500,363.000 C295.910,363.000 292.1000,360.090 292.1000,356.500 C292.1000,352.910 295.910,349.1000 299.500,349.1000 C303.090,349.1000 305.1000,352.910 305.1000,356.500 C305.1000,360.090 303.090,363.000 299.500,363.000 ZM299.500,95.1000 C295.910,95.1000 292.1000,93.090 292.1000,89.500 C292.1000,85.910 295.910,82.1000 299.500,82.1000 C303.090,82.1000 305.1000,85.910 305.1000,89.500 C305.1000,93.090 303.090,95.1000 299.500,95.1000 ZM255.500,229.000 C251.910,229.000 249.000,226.090 249.000,222.500 C249.000,218.910 251.910,216.000 255.500,216.000 C259.090,216.000 262.000,218.910 262.000,222.500 C262.000,226.090 259.090,229.000 255.500,229.000 ZM229.500,577.1000 C225.910,577.1000 223.000,575.090 223.000,571.500 C223.000,567.910 225.910,564.1000 229.500,564.1000 C233.090,564.1000 236.000,567.910 236.000,571.500 C236.000,575.090 233.090,577.1000 229.500,577.1000 ZM229.500,313.000 C225.910,313.000 223.000,310.090 223.000,306.500 C223.000,302.910 225.910,300.000 229.500,300.000 C233.090,300.000 236.000,302.910 236.000,306.500 C236.000,310.090 233.090,313.000 229.500,313.000 ZM185.500,444.1000 C181.910,444.1000 179.000,442.090 179.000,438.500 C179.000,434.910 181.910,432.000 185.500,432.000 C189.090,432.000 192.000,434.910 192.000,438.500 C192.000,442.090 189.090,444.1000 185.500,444.1000 ZM185.500,13.000 C181.910,13.000 179.000,10.090 179.000,6.500 C179.000,2.910 181.910,0.000 185.500,0.000 C189.090,0.000 192.000,2.910 192.000,6.500 C192.000,10.090 189.090,13.000 185.500,13.000 ZM116.500,229.000 C112.910,229.000 109.1000,226.090 109.1000,222.500 C109.1000,218.910 112.910,216.000 116.500,216.000 C120.090,216.000 122.1000,218.910 122.1000,222.500 C122.1000,226.090 120.090,229.000 116.500,229.000 ZM72.500,97.000 C68.910,97.000 66.000,94.090 66.000,90.500 C66.000,86.910 68.910,84.000 72.500,84.000 C76.090,84.000 79.000,86.910 79.000,90.500 C79.000,94.090 76.090,97.000 72.500,97.000 ZM47.500,444.1000 C43.910,444.1000 41.000,442.090 41.000,438.500 C41.000,434.910 43.910,432.000 47.500,432.000 C51.090,432.000 54.000,434.910 54.000,438.500 C54.000,442.090 51.090,444.1000 47.500,444.1000 ZM6.500,313.000 C2.910,313.000 -0.000,310.090 -0.000,306.500 C-0.000,302.910 2.910,300.000 6.500,300.000 C10.090,300.000 12.1000,302.910 12.1000,306.500 C12.1000,310.090 10.090,313.000 6.500,313.000 Z"/>
 <path fill-rule="evenodd"  stroke="rgb(255, 255, 255)" stroke-width="3px" stroke-linecap="butt" stroke-linejoin="miter" fill="none"
 d="M343.416,219.375 L300.141,86.197 L256.866,219.375 L116.572,219.375 L73.219,85.957 L186.719,3.500 L300.141,85.900 L413.562,3.500 L527.063,85.957 L483.709,219.375 L343.416,219.375 ZM230.500,302.176 L187.268,435.220 L300.125,353.219 L413.023,435.250 L369.781,302.176 L483.281,219.719 L596.781,302.176 L553.428,435.594 L413.496,435.594 L413.625,435.688 L370.272,569.125 L229.978,569.125 L186.625,435.688 L186.754,435.594 L46.853,435.594 L3.500,302.176 L116.1000,219.719 L230.500,302.176 Z"/>
</svg>