<svg 
 xmlns="http://www.w3.org/2000/svg"
 xmlns:xlink="http://www.w3.org/1999/xlink"
 width="602.5px" height="574.5px">
<path fill-rule="evenodd"  stroke="rgb(255, 255, 255)" stroke-width="3px" stroke-linecap="butt" stroke-linejoin="miter" fill="none"
 d="M343.416,219.375 L300.141,86.197 L256.866,219.375 L116.572,219.375 L73.219,85.957 L186.719,3.500 L300.141,85.900 L413.562,3.500 L527.063,85.957 L483.709,219.375 L343.416,219.375 ZM230.500,302.176 L187.268,435.220 L300.125,353.219 L413.023,435.250 L369.781,302.176 L483.281,219.719 L596.781,302.176 L553.428,435.594 L413.496,435.594 L413.625,435.688 L370.272,569.125 L229.978,569.125 L186.625,435.688 L186.754,435.594 L46.853,435.594 L3.500,302.176 L116.1000,219.719 L230.500,302.176 Z"/>
</svg>